<svg xmlns="http://www.w3.org/2000/svg" viewBox="0 0 392.99 393">
  <defs>
    <style>
      .cls-1{fill:#0a679b;opacity:0.5}
      .cls-2{fill:#f58634;opacity:0.5}
      .cls-3{fill:none;stroke:#0a679b;stroke-miterlimit:10;stroke-width:3px;opacity:0.5}
    </style>
  </defs>
  <title>RSATLOGO2</title>
  <g id="Layer_2" data-name="Layer 2">
    <g id="Layer_1-2" data-name="Layer 1">
      <g id="Capa_1">
        <path class="cls-1" d="M94.56,226.36l1.07,1.87,1.1,1.9h4.4l1.07-1.9,1.1-1.87-1.1-1.9-1.07-1.9h-4.4l-1.1,1.9ZM53.86,196.62l1.43.83,1.46.83v3.33l-1.46.83-1.43.83-1.46-.83L51,201.62v-3.33l1.43-.83Zm-19.8-30.21,1.43.83,1.46.83v3.33l-1.46.83-1.43.83-1.43-.83-1.46-.83v-3.33l1.46-.83Zm3.33-7.4,1.43.83,1.46.83V164l-1.46.83-1.43.83-1.46-.83L34.5,164v-3.33l1.43-.83Zm1.19-11.89,1.31,2.23,1.31,2.26-1.31,2.26-1.31,2.23H33.4l-1.31-2.23-1.28-2.26,1.28-2.26,1.31-2.23h5.17ZM33.9,175.93l.83.48.83.48v1.93l-.83.48-.83.48-.83-.48-.83-.48v-1.93l.83-.48Zm8-11,.83.48.83.48v1.93l-.83.48-.83.48-.83-.48-.86-.48v-1.93l.86-.48ZM50,162.58l1.46.83,1.43.83v3.33l-1.43.83-1.46.83-1.43-.83-1.46-.83v-3.33l1.46-.83Zm-2.44-15.1,1.46.83,1.43.83v3.3l-1.43.83-1.46.83-1.43-.83-1.46-.83v-3.3l1.46-.83Zm-2.38,6.63,1.67,1,1.67,1v3.87l-1.67,1-1.67,1-1.67-1-1.69-1V156l1.69-1Zm-4.79-11.72.86.48.83.48v1.93l-.83.48-.86.48-.83-.48-.83-.48v-1.93l.83-.48Zm6.07-.59.83.48.83.48v1.93l-.83.48-.83.51-.83-.51-.83-.48v-1.93l.83-.48Zm-15.67,39.7H35.3l1.16,2,1.13,2-1.13,2-1.16,2H30.75l-1.13-2-1.13-2,1.13-2Zm11.15-.59,1.28.74,1.28.74v3l-1.28.71-1.28.74-1.28-.74-1.28-.71v-3l1.28-.74Zm6.42-.36.83.48.83.48v1.93l-.83.48-.83.51-.83-.51-.83-.48v-1.93l.83-.48Zm15.85-4,1.43.83,1.46.83v3.33l-1.46.83-1.43.83-1.46-.83-1.43-.83v-3.33l1.43-.83Zm-21.91-3.33,1,1.67,1,1.64-1,1.67-1,1.64H38.45l-1-1.64-1-1.67,1-1.64,1-1.67h3.81Zm15.64-12,1.13.65,1.13.62v2.62l-1.13.62-1.13.65-1.13-.65-1.1-.62v-2.62l1.1-.62Zm-25.63-4.79.83.48.83.48v1.93l-.83.48-.83.51-.83-.51-.83-.48v-1.93l.83-.48Zm26.37,22.84.83.48.83.48v1.93l-.83.51-.83.48-.83-.48L57,182.2v-1.93l.83-.48Zm5-19.27.83.51.86.48V163l-.86.48-.83.48-.83-.48L62,163V161l.83-.48Zm-16.95,32,1.25.74,1.25.71v2.85L48,197.1l-1.25.71-1.22-.71-1.25-.71v-2.85l1.25-.71Zm-4.82-4.13,1,1.69,1,1.72-1,1.72-1,1.72h-4l-1-1.72-1-1.72,1-1.72,1-1.69h4Zm11.39-7.26.83.48.83.51v1.9l-.83.51-.83.48-.83-.48-.83-.51v-1.9l.83-.51Zm-5.14,18.58H44.82L44,200.7l-.83,1.46.83,1.43.83,1.46h3.33l.83-1.46.83-1.43L49,200.7Zm10.32,6-1.69,1-1.67,1v3.9l1.67,1,1.69,1,1.69-1,1.67-1v-3.9l-1.67-1ZM92.6,224.87H87.48l-1.28,2.2-1.28,2.23,1.28,2.2,1.28,2.23H92.6l1.28-2.23,1.31-2.2-1.31-2.23Zm-7.4-20.1H81.86L81,206.2l-.83,1.46.83,1.43.83,1.46h3.33l.83-1.46.83-1.43L86,206.2Zm4,12.7-1.43.83-1.46.83v3.33l1.46.83,1.43.83,1.46-.83,1.43-.83v-3.33l-1.43-.83Zm6.42-.48-.83.48-.83.48v1.93l.83.51.83.48.83-.48.83-.51v-1.93l-.83-.48ZM89,209.82l-.83,1.46-.83,1.43.83,1.46.83,1.43H92.3l.83-1.43.83-1.46-.83-1.43-.83-1.46H89Zm-14.54,18-.83.48-.83.51v1.9l.83.51.83.48.83-.48.83-.51v-1.9l-.83-.51Zm8.65-13.92-.83.51-.83.48v1.93l.83.48.83.48.83-.48.83-.48v-1.93l-.83-.48ZM99,235.57l.83,1.43.83,1.46H104l.83-1.46.83-1.43-.83-1.46-.83-1.43h-3.33l-.83,1.43Zm-2.91-4.22-.86.51-.83.48v1.93l.83.48.86.48.83-.48.83-.48v-1.93l-.83-.48Zm-15.67-4.43-1.43.83-1.46.83v3.33l1.46.83,1.43.83,1.46-.83,1.43-.83v-3.33l-1.43-.83Zm-2.11-12.79H75l-.83,1.43-.8,1.43.8,1.43.83,1.4h3.3l.8-1.4L80,217l-.83-1.43Zm12.61,21.35-.83.48-.83.48v1.93l.83.48.83.48.83-.48.83-.48v-1.93l-.83-.48ZM73.15,205.16H69.82L69,206.58,68.16,208l.83,1.43.83,1.46h3.33l.83-1.46.83-1.43L74,206.58Zm-9,4.31h1.93l.48-.83.48-.83-.48-.83-.48-.83H64.17l-.48.83-.48.83.48.83Zm13.32-3.75-.83.48-.83.48v1.93l.83.48.83.51.83-.51.83-.48v-1.93l-.83-.48Zm-25.24-1.93-.86.48-.83.51v1.9l.83.51.86.48.83-.48.83-.51v-1.9l-.83-.51Z"/>
        <path class="cls-2" d="M38.81,223.74l-1.25.71-1.25.71V228l1.25.71,1.25.74,1.22-.74,1.25-.71v-2.85L40,224.45ZM78.21,177H74.88L74,178.45l-.83,1.43.83,1.46.83,1.43h3.33l.83-1.43.83-1.46L79,178.45Zm25.13-27.24-1.46.83-1.43.83v3.33l1.43.83,1.46.83,1.43-.83,1.46-.83v-3.33l-1.46-.83Zm-3-10.26H94.92l-1.37,2.35-1.34,2.35,1.34,2.35,1.37,2.35h5.41l1.37-2.35L103,144.2l-1.34-2.35ZM78.21,197.9l-.83.48-.83.48v1.93l.83.48.83.48.83-.48.83-.48v-1.93l-.83-.48Zm-6.75,2-.83.48-.83.51v1.9l.83.51.83.48.83-.48.83-.51v-1.9l-.83-.51ZM93.34,160H90l-.83,1.46-.83,1.43.83,1.46.83,1.43h3.33l.83-1.43.83-1.46-.83-1.43ZM77,169.56l-1.46.83-1.43.83v3.33l1.43.83,1.46.83,1.43-.83,1.46-.83v-3.33l-1.46-.83Zm-9,17.42-.83.48-.83.51v1.93l.83.48.83.48.83-.48.83-.48V188l-.83-.51Zm1.78-7.55-.83.48-.83.48v1.93l.83.48.83.51.83-.51.83-.48v-1.93l-.83-.48Zm13,1-.83.48-.83.48v1.93l.83.48.83.51.83-.51.83-.48v-1.93L83.5,181Zm2.71-10.67H82.55L81.83,171l-.71,1.25.71,1.22.71,1.22h2.82l.71-1.22.71-1.22L86.09,171ZM73.81,183.21l-1.43.83-1.46.83v3.33l1.46.83,1.43.83,1.46-.83,1.43-.83v-3.33L75.26,184Zm43.68-40.08-.83.48-.83.51V146l.83.51.83.48.83-.48.83-.51v-1.9l-.83-.51Zm-21.11,8.3-.83.51-.83.48v1.93l.83.48.83.48.83-.48.83-.48v-1.93l-.83-.48ZM87.6,141.08H83.53l-1,1.75-1,1.75,1,1.78,1,1.75H87.6l1-1.75,1-1.78-1-1.75ZM108,144.89l-.83.48-.83.48v1.93l.83.48.83.48.83-.48.86-.48v-1.93l-.86-.48Zm-8.83,13.65-.86.48-.83.51v1.9l.83.51.86.48.83-.48.83-.51v-1.9L100,159Zm-9.43-9.37H84.33L83,151.52l-1.34,2.32L83,156.15l1.34,2.32h5.38l1.34-2.32,1.34-2.32-1.34-2.32Zm-16.56,12-.83.51-.83.48v1.93l.83.48.83.48.83-.48.83-.48v-1.93l-.83-.48Zm12.79,3-.83.48-.86.51v1.9l.86.51.83.48.83-.48.83-.51v-1.9l-.83-.51Zm-1.64-4.34-.83.51-.83.48v1.93l.83.48.83.48.83-.48.83-.48v-1.93l-.83-.48Zm-16-.18-.83.48-.83.48v1.93l.83.48.83.51.83-.51.83-.48v-1.93l-.83-.48Zm4.85,32.62.83,1.46.83,1.43L74,196.62,73.12,198H69.79L69,196.62l-.83-1.46.83-1.43.83-1.46h3.33Zm8.59-3.42H78.39l-.83,1.43-.83,1.46.83,1.43.83,1.46h3.33l.83-1.46.83-1.43-.83-1.46ZM78.56,158l-1.43.83-1.46.83V163l1.46.83,1.43.83,1.46-.83,1.43-.83v-3.33L80,158.86ZM34.62,229.51l-.83.51-.83.48v1.93l.83.48.83.48.83-.48.83-.48v-1.93l-.83-.48Zm21.17.8-1.43.83L52.9,232v3.33l1.46.83,1.43.83,1.43-.83,1.46-.83V232l-1.46-.83ZM46.57,217l-.83.48-.83.48v1.93l.83.48.83.48.83-.48.83-.48v-1.93l-.83-.48Zm-4.94-1.07H38.3l-.83,1.46-.83,1.43.83,1.46.83,1.43h3.33l.83-1.43.83-1.46-.83-1.43Zm8.27,12.9-.83.48-.83.51v1.9l.83.51.83.48.83-.48.83-.51v-1.9l-.83-.51ZM46,235.66l-1.13.68-1.16.65v2.68l1.16.65L46,241l1.16-.68,1.16-.65V237l-1.16-.65Zm-8.18.06h-4.7L32,237.77l-1.19,2L32,241.85l1.16,2h4.7l1.19-2,1.16-2.05-1.16-2Zm23.82-7-.83.48-.83.48v1.93l.83.48.83.48.83-.48.83-.48v-1.93l-.83-.48ZM67,227.49l.83.48.86.48v1.93l-.86.51-.83.48-.83-.48-.83-.51v-1.93l.83-.48Zm-25.27,2.77-1.46.83-1.43.83v3.33l1.43.83,1.46.83,1.43-.83,1.46-.83v-3.33l-1.46-.83Zm2.88-8.15-.83,1.43L42.94,225l.83,1.43.83,1.46h3.33l.83-1.46L49.6,225l-.83-1.46-.83-1.43H44.61Zm7.7-13.59H47.79l-1.13,2-1.13,2,1.13,2,1.13,2h4.52l1.13-2,1.13-2-1.13-2Zm12.34-11H60.49l-1,1.78-1,1.78,1,1.81,1,1.78h4.16l1-1.78,1-1.81-1-1.78Z"/>
        <path class="cls-1" d="M363.3,173.19H346.83l-10.08,37.61a7.89,7.89,0,0,1-3.39,4.85,10.81,10.81,0,0,1-5.83,1.55,7.11,7.11,0,0,1-5.05-1.58c-1.13-1.07-1.43-2.65-.83-4.82l10.08-37.61H315.25c-2.59,0-4.4-.39-5.44-1.19a2.75,2.75,0,0,1-1-3.15,5.09,5.09,0,0,1,2.8-3.18,13.25,13.25,0,0,1,6-1.16h48.05c2.65,0,4.46.39,5.53,1.19a2.84,2.84,0,0,1,1.07,3.15,5.21,5.21,0,0,1-2.8,3.15A13,13,0,0,1,363.3,173.19Z">
          <animateTransform
            attributeName="transform"
            attributeType="XML"
            type="translate"
            begin=".1"
            dur="1s"
            values="0,3;0,-3;0,6"
            repeatCount="indefinite"/>
        </path>
        <path class="cls-1" d="M290.57,210.48,288.75,204H258.43l-5.32,6.63a32.78,32.78,0,0,1-5,5.26,8.74,8.74,0,0,1-5.2,1.34,7.2,7.2,0,0,1-4.64-1.43,3,3,0,0,1-1.31-3.3,6.51,6.51,0,0,1,1.1-2.17,39.75,39.75,0,0,1,2.53-3.15l28.07-33.66c.8-1,1.75-2.11,2.88-3.48a23.85,23.85,0,0,1,3.36-3.36,13.11,13.11,0,0,1,4-2.17,15.86,15.86,0,0,1,5.44-.83,12.52,12.52,0,0,1,5.05.83,6.61,6.61,0,0,1,2.82,2.11,9,9,0,0,1,1.43,2.82c.33,1,.74,2.35,1.19,4l10.53,33.42c.86,2.56,1.13,4.4.8,5.56a5.94,5.94,0,0,1-3,3.3,10.81,10.81,0,0,1-5.62,1.49,7.67,7.67,0,0,1-2.94-.45,4.39,4.39,0,0,1-1.81-1.19,7.52,7.52,0,0,1-1.22-2.32C291.16,212.2,290.84,211.25,290.57,210.48Zm-26-14.42h22.3l-5.53-21.35Z">
          <animateTransform
            attributeName="transform"
            attributeType="XML"
            type="translate"
            begin=".2"
            dur="1s"
            values="0,3;0,-3;0,6"
            repeatCount="indefinite"/>
        </path>
        <path class="cls-1" d="M236.39,200.81a16.73,16.73,0,0,1-5.77,8.41,31.66,31.66,0,0,1-11.77,5.86,58.41,58.41,0,0,1-16.47,2.11c-7.37,0-13.17-1-17.45-2.88a15.29,15.29,0,0,1-6.75-5.56,8.2,8.2,0,0,1-1.37-6.75,5.61,5.61,0,0,1,2.8-3.27,9.78,9.78,0,0,1,5.2-1.37,5.91,5.91,0,0,1,3.75,1.07,6,6,0,0,1,2,3.15,13.35,13.35,0,0,0,2,4.13,8.62,8.62,0,0,0,3.92,2.74,21.46,21.46,0,0,0,7.61,1.07,27.45,27.45,0,0,0,11.48-2.17c3.18-1.43,5.08-3.24,5.65-5.41a3.81,3.81,0,0,0-1.13-4.19,12.49,12.49,0,0,0-5.2-2.47c-2.23-.56-5.29-1.16-9.1-1.81a81.7,81.7,0,0,1-12.64-3,15.72,15.72,0,0,1-7.31-4.79c-1.58-2-2-4.52-1.16-7.52a14.57,14.57,0,0,1,5.38-7.61,30.46,30.46,0,0,1,11.09-5.08,61.29,61.29,0,0,1,15.43-1.78,49.21,49.21,0,0,1,11.57,1.16,22.71,22.71,0,0,1,7.46,3.15,10.67,10.67,0,0,1,3.75,4.13,6.26,6.26,0,0,1,.39,4.19,6.11,6.11,0,0,1-2.82,3.39,9.06,9.06,0,0,1-5.14,1.49,6,6,0,0,1-3.72-.89,8.73,8.73,0,0,1-2.11-2.94,10.43,10.43,0,0,0-3.66-4.58c-1.61-1.1-4.52-1.67-8.74-1.67a24.56,24.56,0,0,0-9.9,1.78c-2.74,1.22-4.31,2.65-4.76,4.31a2.83,2.83,0,0,0,.51,2.68,6.91,6.91,0,0,0,2.85,2,25.58,25.58,0,0,0,4,1.28q2.1.45,6.87,1.34c4,.68,7.64,1.43,10.82,2.26a32.88,32.88,0,0,1,7.91,3,10.39,10.39,0,0,1,4.4,4.46A9.8,9.8,0,0,1,236.39,200.81Z">
          <animateTransform
            attributeName="transform"
            attributeType="XML"
            type="translate"
            begin=".3"
            dur="1s"
            values="0,3;0,-3;0,6"
            repeatCount="indefinite"/>
        </path>
        <path class="cls-1" d="M130.6,194.18h-5.29l-4.46,16.62a7.8,7.8,0,0,1-3.36,4.85,11,11,0,0,1-5.86,1.55c-2.41,0-4.16-.54-5.17-1.61s-1.28-2.68-.71-4.79l10.67-39.87a7.77,7.77,0,0,1,3.51-4.91,15.17,15.17,0,0,1,7.49-1.52H152c3.39,0,6.27.09,8.62.3a25.31,25.31,0,0,1,6.18,1.22,15.17,15.17,0,0,1,5.44,2.94,9.42,9.42,0,0,1,2.88,4.43,10,10,0,0,1,0,5.38,15.38,15.38,0,0,1-7.2,9.25q-5.62,3.48-15.58,4.91a20.18,20.18,0,0,1,6.51,4.4,34.91,34.91,0,0,1,4.88,6.15,31.51,31.51,0,0,1,2.91,5.89,7.88,7.88,0,0,1,.62,3.63,4.09,4.09,0,0,1-1.49,2,8.76,8.76,0,0,1-3,1.61,12.65,12.65,0,0,1-3.92.56,8.27,8.27,0,0,1-4-.83,6.88,6.88,0,0,1-2.41-2.08c-.59-.86-1.4-2.11-2.38-3.75l-4.19-7a29.06,29.06,0,0,0-4.25-5.86,10.75,10.75,0,0,0-4.49-2.77A22.33,22.33,0,0,0,130.6,194.18Zm14.48-21.8H131.13l-3.81,14.27h13.53a56.14,56.14,0,0,0,9.34-.65,16.68,16.68,0,0,0,6.27-2.23,7.38,7.38,0,0,0,3.12-4.34,4.35,4.35,0,0,0-.56-3.81,6.69,6.69,0,0,0-3.72-2.47C153.7,172.66,150.28,172.39,145.08,172.39Z">
          <animateTransform
            attributeName="transform"
            attributeType="XML"
            type="translate"
            begin=".4"
            dur="1s"
            values="0,3;0,-3;0,6"
            repeatCount="indefinite"/>
        </path>
      </g>
      <path class="cls-3" d="M7.5,194.78C8.45,90.4,93.84,6.56,198.21,7.51S386.44,93.84,385.48,198.22,299.15,386.44,194.77,385.49">
        <animateTransform
          attributeName="transform"
          attributeType="XML"
          type="rotate"
          from="0 196.495 196.5"
          to="360 196.495 196.5"
          begin=".1"
          dur="2s"
          repeatCount="indefinite"/>
      </path>
      <path class="cls-3" d="M1.5,194.72C2.48,87,90.58.53,198.27,1.51s194.2,89.08,193.22,196.77-89.08,194.2-196.77,193.22">
        <animateTransform
          attributeName="transform"
          attributeType="XML"
          type="rotate"
          from="0 196.495 196.5"
          to="360 196.495 196.5"
          begin=".105"
          dur="2s"
          repeatCount="indefinite"/>
      </path>
      </g>
    </g>
  </svg>
